<?xml version="1.0" standalone="no"?>
<!DOCTYPE svg PUBLIC "-//W3C//DTD SVG 20010904//EN"
 "http://www.w3.org/TR/2001/REC-SVG-20010904/DTD/svg10.dtd">
<svg version="1.0" xmlns="http://www.w3.org/2000/svg"
 width="512.000000pt" height="512.000000pt" viewBox="0 0 512.000000 512.000000"
 preserveAspectRatio="xMidYMid meet">

<g transform="translate(0.000000,512.000000) scale(0.100000,-0.100000)"
fill="#000000" stroke="none">
<path d="M555 5090 c-158 -25 -329 -99 -421 -183 -77 -70 -109 -141 -109 -238
0 -65 5 -85 33 -141 64 -130 171 -207 577 -416 489 -251 800 -443 1188 -730
103 -76 126 -97 115 -107 -7 -6 -78 -66 -158 -132 -239 -198 -423 -365 -651
-593 -441 -439 -747 -835 -923 -1193 -120 -243 -171 -412 -182 -607 -17 -292
108 -596 288 -695 47 -27 62 -30 138 -30 107 1 172 30 255 113 86 87 151 191
318 518 206 400 297 557 511 874 252 376 634 852 947 1183 l74 78 180 -169
c536 -504 1011 -1043 1481 -1682 118 -161 457 -661 547 -809 45 -73 94 -101
191 -108 74 -5 126 17 141 60 12 36 -6 90 -118 352 -304 710 -812 1571 -1380
2335 -138 185 -430 554 -447 565 -23 14 -3 39 142 167 506 445 1056 856 1650
1232 92 58 110 74 130 114 30 63 33 189 4 221 -36 40 -70 36 -216 -23 -582
-234 -1225 -581 -1888 -1019 l-273 -180 -167 164 c-266 261 -458 429 -666 584
-343 255 -674 423 -946 481 -91 19 -283 26 -365 14z"/>
</g>
</svg>
