<svg width="801" height="312" viewBox="0 0 801 312" fill="none" xmlns="http://www.w3.org/2000/svg">
<mask id="path-1-inside-1_3_29" fill="white">
<path fill-rule="evenodd" clip-rule="evenodd" d="M75.2464 0H176.246L444.246 311H337.246L253.246 208L168.246 311H58.2464L199.746 146.5L75.2464 0ZM127.246 90.5L105.246 67C67.5797 77.3333 -4.75359 110.5 0.246424 152C3.24643 167 20.4464 205.4 109.246 231L125.246 205.5C120.182 203.132 114.78 201.017 109.279 198.864C86.9 190.103 62.8786 180.699 53.2464 151C51.9131 137.667 66.4464 108.1 127.246 90.5ZM328.246 0L280.246 59L328.246 124L365.246 84C438.046 108 454.246 135.333 453.246 146C460.446 172.4 411.58 193.667 386.246 201L404.246 227C445.112 216.844 470.757 202.879 486.282 189L639.246 201C645.08 197.667 654.146 187.8 643.746 175L504.789 164C507.606 156.898 508.094 150.645 507.246 146C500.046 96.4 423.58 67.3333 386.246 59L432.246 0H328.246ZM738.423 238.273V311H753.799V280.957H785.014V311H800.355V238.273H785.014V268.28H753.799V238.273H738.423ZM727.397 263.734H711.843C711.559 261.722 710.978 259.935 710.103 258.372C709.227 256.786 708.102 255.437 706.729 254.324C705.356 253.211 703.77 252.359 701.97 251.767C700.195 251.175 698.265 250.879 696.182 250.879C692.418 250.879 689.139 251.814 686.345 253.685C683.552 255.531 681.386 258.23 679.847 261.781C678.308 265.309 677.539 269.594 677.539 274.636C677.539 279.821 678.308 284.177 679.847 287.705C681.409 291.232 683.587 293.895 686.381 295.695C689.174 297.494 692.406 298.393 696.076 298.393C698.135 298.393 700.041 298.121 701.793 297.577C703.568 297.032 705.143 296.239 706.516 295.197C707.889 294.132 709.025 292.842 709.925 291.327C710.848 289.812 711.487 288.083 711.843 286.142L727.397 286.213C726.994 289.551 725.988 292.771 724.378 295.872C722.792 298.95 720.649 301.708 717.951 304.146C715.275 306.561 712.079 308.479 708.362 309.899C704.669 311.296 700.491 311.994 695.827 311.994C689.34 311.994 683.54 310.527 678.426 307.591C673.336 304.655 669.312 300.406 666.353 294.842C663.417 289.279 661.949 282.544 661.949 274.636C661.949 266.706 663.441 259.958 666.424 254.395C669.406 248.831 673.455 244.594 678.568 241.682C683.682 238.746 689.435 237.278 695.827 237.278C700.041 237.278 703.947 237.87 707.546 239.054C711.168 240.238 714.376 241.966 717.169 244.239C719.963 246.488 722.236 249.246 723.987 252.513C725.763 255.78 726.899 259.52 727.397 263.734ZM597.603 238.273V311H612.979V285.219H624.203L637.979 311H654.953L639.523 282.746C639.628 282.701 639.732 282.655 639.835 282.608C639.951 282.556 640.066 282.503 640.181 282.449C644.134 280.602 647.153 277.951 649.236 274.494C651.319 271.014 652.361 266.859 652.361 262.03C652.361 257.224 651.331 253.045 649.272 249.494C647.236 245.919 644.265 243.161 640.358 241.22C636.476 239.255 631.788 238.273 626.296 238.273H597.603ZM623.419 272.861H612.979V250.844H623.348C626.308 250.844 628.758 251.282 630.699 252.158C632.664 253.01 634.12 254.265 635.067 255.922C636.038 257.579 636.523 259.615 636.523 262.03C636.523 264.421 636.038 266.421 635.067 268.031C634.12 269.641 632.676 270.848 630.735 271.653C628.793 272.458 626.355 272.861 623.419 272.861ZM535.333 311H518.856L543.963 238.273H563.778L588.849 311H572.372L566.987 294.416H540.728L535.333 311ZM554.154 254.892L563.09 282.413H544.633L553.586 254.892H554.154ZM461.567 238.273V311H510.715V298.322H476.944V280.957H508.052V268.28H476.944V250.95H510.573V238.273H461.567Z"/>
</mask>
<path fill-rule="evenodd" clip-rule="evenodd" d="M75.2464 0H176.246L444.246 311H337.246L253.246 208L168.246 311H58.2464L199.746 146.5L75.2464 0ZM127.246 90.5L105.246 67C67.5797 77.3333 -4.75359 110.5 0.246424 152C3.24643 167 20.4464 205.4 109.246 231L125.246 205.5C120.182 203.132 114.78 201.017 109.279 198.864C86.9 190.103 62.8786 180.699 53.2464 151C51.9131 137.667 66.4464 108.1 127.246 90.5ZM328.246 0L280.246 59L328.246 124L365.246 84C438.046 108 454.246 135.333 453.246 146C460.446 172.4 411.58 193.667 386.246 201L404.246 227C445.112 216.844 470.757 202.879 486.282 189L639.246 201C645.08 197.667 654.146 187.8 643.746 175L504.789 164C507.606 156.898 508.094 150.645 507.246 146C500.046 96.4 423.58 67.3333 386.246 59L432.246 0H328.246ZM738.423 238.273V311H753.799V280.957H785.014V311H800.355V238.273H785.014V268.28H753.799V238.273H738.423ZM727.397 263.734H711.843C711.559 261.722 710.978 259.935 710.103 258.372C709.227 256.786 708.102 255.437 706.729 254.324C705.356 253.211 703.77 252.359 701.97 251.767C700.195 251.175 698.265 250.879 696.182 250.879C692.418 250.879 689.139 251.814 686.345 253.685C683.552 255.531 681.386 258.23 679.847 261.781C678.308 265.309 677.539 269.594 677.539 274.636C677.539 279.821 678.308 284.177 679.847 287.705C681.409 291.232 683.587 293.895 686.381 295.695C689.174 297.494 692.406 298.393 696.076 298.393C698.135 298.393 700.041 298.121 701.793 297.577C703.568 297.032 705.143 296.239 706.516 295.197C707.889 294.132 709.025 292.842 709.925 291.327C710.848 289.812 711.487 288.083 711.843 286.142L727.397 286.213C726.994 289.551 725.988 292.771 724.378 295.872C722.792 298.95 720.649 301.708 717.951 304.146C715.275 306.561 712.079 308.479 708.362 309.899C704.669 311.296 700.491 311.994 695.827 311.994C689.34 311.994 683.54 310.527 678.426 307.591C673.336 304.655 669.312 300.406 666.353 294.842C663.417 289.279 661.949 282.544 661.949 274.636C661.949 266.706 663.441 259.958 666.424 254.395C669.406 248.831 673.455 244.594 678.568 241.682C683.682 238.746 689.435 237.278 695.827 237.278C700.041 237.278 703.947 237.87 707.546 239.054C711.168 240.238 714.376 241.966 717.169 244.239C719.963 246.488 722.236 249.246 723.987 252.513C725.763 255.78 726.899 259.52 727.397 263.734ZM597.603 238.273V311H612.979V285.219H624.203L637.979 311H654.953L639.523 282.746C639.628 282.701 639.732 282.655 639.835 282.608C639.951 282.556 640.066 282.503 640.181 282.449C644.134 280.602 647.153 277.951 649.236 274.494C651.319 271.014 652.361 266.859 652.361 262.03C652.361 257.224 651.331 253.045 649.272 249.494C647.236 245.919 644.265 243.161 640.358 241.22C636.476 239.255 631.788 238.273 626.296 238.273H597.603ZM623.419 272.861H612.979V250.844H623.348C626.308 250.844 628.758 251.282 630.699 252.158C632.664 253.01 634.12 254.265 635.067 255.922C636.038 257.579 636.523 259.615 636.523 262.03C636.523 264.421 636.038 266.421 635.067 268.031C634.12 269.641 632.676 270.848 630.735 271.653C628.793 272.458 626.355 272.861 623.419 272.861ZM535.333 311H518.856L543.963 238.273H563.778L588.849 311H572.372L566.987 294.416H540.728L535.333 311ZM554.154 254.892L563.09 282.413H544.633L553.586 254.892H554.154ZM461.567 238.273V311H510.715V298.322H476.944V280.957H508.052V268.28H476.944V250.95H510.573V238.273H461.567Z" fill="#D9D9D9"/>
<path d="M176.246 0L177.761 -1.30559L177.163 -2H176.246V0ZM75.2464 0V-2H70.9221L73.7224 1.29515L75.2464 0ZM444.246 311V313H448.61L445.761 309.694L444.246 311ZM337.246 311L335.696 312.264L336.297 313H337.246V311ZM253.246 208L254.796 206.736L253.256 204.847L251.704 206.727L253.246 208ZM168.246 311V313H169.189L169.789 312.273L168.246 311ZM58.2464 311L56.7302 309.696L53.8879 313H58.2464V311ZM199.746 146.5L201.263 147.804L202.378 146.508L201.27 145.205L199.746 146.5ZM105.246 67L106.706 65.6332L105.881 64.7519L104.717 65.0713L105.246 67ZM127.246 90.5L127.803 92.4211L130.936 91.5142L128.706 89.1332L127.246 90.5ZM0.246424 152L-1.73922 152.239L-1.72994 152.316L-1.71474 152.392L0.246424 152ZM109.246 231L108.692 232.922L110.14 233.339L110.941 232.063L109.246 231ZM125.246 205.5L126.941 206.563L128.143 204.646L126.093 203.688L125.246 205.5ZM109.279 198.864L108.55 200.726L108.55 200.726L109.279 198.864ZM53.2464 151L51.2563 151.199L51.2777 151.413L51.344 151.617L53.2464 151ZM280.246 59L278.695 57.7378L277.716 58.9407L278.638 60.1881L280.246 59ZM328.246 0V-2H327.295L326.695 -1.26217L328.246 0ZM328.246 124L326.638 125.188L328.073 127.132L329.715 125.358L328.246 124ZM365.246 84L365.873 82.1006L364.651 81.698L363.778 82.6419L365.246 84ZM453.246 146L451.255 145.813L451.221 146.175L451.317 146.526L453.246 146ZM386.246 201L385.69 199.079L383.019 199.852L384.602 202.138L386.246 201ZM404.246 227L402.602 228.138L403.388 229.274L404.729 228.941L404.246 227ZM486.282 189L486.438 187.006L485.586 186.939L484.949 187.509L486.282 189ZM639.246 201L639.09 202.994L639.704 203.042L640.239 202.736L639.246 201ZM643.746 175L645.299 173.739L644.758 173.074L643.904 173.006L643.746 175ZM504.789 164L502.93 163.263L501.932 165.78L504.632 165.994L504.789 164ZM507.246 146L505.267 146.287L505.272 146.323L505.279 146.359L507.246 146ZM386.246 59L384.669 57.7703L382.725 60.2633L385.811 60.952L386.246 59ZM432.246 0L433.824 1.22973L436.342 -2L432.246 -2V0ZM738.423 311H736.423V313H738.423V311ZM738.423 238.273V236.273H736.423V238.273H738.423ZM753.799 311V313H755.799V311H753.799ZM753.799 280.957V278.957H751.799V280.957H753.799ZM785.014 280.957H787.014V278.957H785.014V280.957ZM785.014 311H783.014V313H785.014V311ZM800.355 311V313H802.355V311H800.355ZM800.355 238.273H802.355V236.273H800.355V238.273ZM785.014 238.273V236.273H783.014V238.273H785.014ZM785.014 268.28V270.28H787.014V268.28H785.014ZM753.799 268.28H751.799V270.28H753.799V268.28ZM753.799 238.273H755.799V236.273H753.799V238.273ZM711.843 263.734L709.862 264.014L710.105 265.734H711.843V263.734ZM727.397 263.734V265.734H729.646L729.383 263.5L727.397 263.734ZM710.103 258.372L708.352 259.339L708.358 259.35L710.103 258.372ZM701.97 251.767L701.338 253.664L701.345 253.667L701.97 251.767ZM686.345 253.685L687.448 255.353L687.458 255.347L686.345 253.685ZM679.847 261.781L681.68 262.581L681.682 262.576L679.847 261.781ZM679.847 287.705L678.014 288.504L678.018 288.515L679.847 287.705ZM686.381 295.695L685.298 297.376L685.298 297.376L686.381 295.695ZM701.793 297.577L701.206 295.665L701.199 295.667L701.793 297.577ZM706.516 295.197L707.725 296.791L707.733 296.784L707.742 296.778L706.516 295.197ZM709.925 291.327L708.217 290.286L708.211 290.296L708.205 290.306L709.925 291.327ZM711.843 286.142L711.852 284.142L710.177 284.134L709.875 285.782L711.843 286.142ZM727.397 286.213L729.382 286.453L729.651 284.223L727.406 284.213L727.397 286.213ZM724.378 295.872L722.603 294.951L722.6 294.956L724.378 295.872ZM717.951 304.146L719.291 305.631L719.291 305.63L717.951 304.146ZM708.362 309.899L709.07 311.77L709.076 311.767L708.362 309.899ZM678.426 307.591L677.427 309.323L677.431 309.325L678.426 307.591ZM666.353 294.842L664.584 295.776L664.587 295.782L666.353 294.842ZM666.424 254.395L668.186 255.34L668.186 255.34L666.424 254.395ZM678.568 241.682L679.558 243.42L679.564 243.416L678.568 241.682ZM707.546 239.054L706.921 240.954L706.924 240.955L707.546 239.054ZM717.169 244.239L715.907 245.79L715.915 245.797L717.169 244.239ZM723.987 252.513L722.225 253.458L722.23 253.468L723.987 252.513ZM597.603 311H595.603V313H597.603V311ZM597.603 238.273V236.273H595.603V238.273H597.603ZM612.979 311V313H614.979V311H612.979ZM612.979 285.219V283.219H610.979V285.219H612.979ZM624.203 285.219L625.967 284.276L625.402 283.219H624.203V285.219ZM637.979 311L636.215 311.943L636.78 313H637.979V311ZM654.953 311V313H658.325L656.709 310.041L654.953 311ZM639.523 282.746L638.727 280.911L636.718 281.783L637.768 283.705L639.523 282.746ZM639.835 282.608L639.014 280.784L639.014 280.784L639.835 282.608ZM640.181 282.449L639.334 280.637L639.33 280.639L640.181 282.449ZM649.236 274.494L650.949 275.527L650.952 275.522L649.236 274.494ZM649.272 249.494L647.534 250.484L647.538 250.491L647.542 250.498L649.272 249.494ZM640.358 241.22L639.455 243.005L639.462 243.008L639.468 243.011L640.358 241.22ZM612.979 272.861H610.979V274.861H612.979V272.861ZM612.979 250.844V248.844H610.979V250.844H612.979ZM630.699 252.158L629.877 253.981L629.89 253.987L629.903 253.992L630.699 252.158ZM635.067 255.922L633.331 256.914L633.336 256.923L633.341 256.933L635.067 255.922ZM635.067 268.031L633.354 266.998L633.349 267.008L633.343 267.017L635.067 268.031ZM630.735 271.653L629.969 269.806L629.969 269.806L630.735 271.653ZM518.856 311L516.966 310.347L516.05 313H518.856V311ZM535.333 311V313H536.786L537.235 311.619L535.333 311ZM543.963 238.273V236.273H542.537L542.072 237.62L543.963 238.273ZM563.778 238.273L565.669 237.621L565.204 236.273H563.778V238.273ZM588.849 311V313H591.654L590.74 310.348L588.849 311ZM572.372 311L570.47 311.618L570.918 313H572.372V311ZM566.987 294.416L568.889 293.799L568.441 292.416H566.987V294.416ZM540.728 294.416V292.416H539.276L538.827 293.797L540.728 294.416ZM563.09 282.413V284.413H565.842L564.992 281.796L563.09 282.413ZM554.154 254.892L556.057 254.274L555.608 252.892H554.154V254.892ZM544.633 282.413L542.731 281.795L541.879 284.413H544.633V282.413ZM553.586 254.892V252.892H552.134L551.684 254.273L553.586 254.892ZM461.567 311H459.567V313H461.567V311ZM461.567 238.273V236.273H459.567V238.273H461.567ZM510.715 311V313H512.715V311H510.715ZM510.715 298.322H512.715V296.322H510.715V298.322ZM476.944 298.322H474.944V300.322H476.944V298.322ZM476.944 280.957V278.957H474.944V280.957H476.944ZM508.052 280.957V282.957H510.052V280.957H508.052ZM508.052 268.28H510.052V266.28H508.052V268.28ZM476.944 268.28H474.944V270.28H476.944V268.28ZM476.944 250.95V248.95H474.944V250.95H476.944ZM510.573 250.95V252.95H512.573V250.95H510.573ZM510.573 238.273H512.573V236.273H510.573V238.273ZM176.246 -2H75.2464V2H176.246V-2ZM445.761 309.694L177.761 -1.30559L174.731 1.30559L442.731 312.306L445.761 309.694ZM337.246 313H444.246V309H337.246V313ZM251.696 209.264L335.696 312.264L338.796 309.736L254.796 206.736L251.696 209.264ZM169.789 312.273L254.789 209.273L251.704 206.727L166.704 309.727L169.789 312.273ZM58.2464 313H168.246V309H58.2464V313ZM198.23 145.196L56.7302 309.696L59.7627 312.304L201.263 147.804L198.23 145.196ZM73.7224 1.29515L198.222 147.795L201.27 145.205L76.7704 -1.29515L73.7224 1.29515ZM103.786 68.3668L125.786 91.8668L128.706 89.1332L106.706 65.6332L103.786 68.3668ZM2.23206 151.761C1.06017 142.034 4.39418 132.678 10.8602 123.845C17.3375 114.997 26.8802 106.79 37.8554 99.4768C59.8058 84.8502 87.0986 74.0525 105.776 68.9287L104.717 65.0713C85.7275 70.2808 58.0203 81.2332 35.6374 96.1482C24.4459 103.606 14.4886 112.117 7.63262 121.483C0.765319 130.864 -3.06733 141.216 -1.73922 152.239L2.23206 151.761ZM109.8 229.078C21.4705 203.614 5.01656 165.653 2.20759 151.608L-1.71474 152.392C1.4763 168.347 19.4223 207.186 108.692 232.922L109.8 229.078ZM123.552 204.437L107.552 229.937L110.941 232.063L126.941 206.563L123.552 204.437ZM108.55 200.726C114.063 202.884 119.403 204.976 124.399 207.312L126.093 203.688C120.96 201.288 115.497 199.15 110.008 197.001L108.55 200.726ZM51.344 151.617C61.3005 182.316 86.2522 191.997 108.55 200.726L110.008 197.001C87.5477 188.209 64.4567 179.082 55.1489 150.383L51.344 151.617ZM126.69 88.5789C96.056 97.4467 76.8887 109.382 65.5201 120.948C54.19 132.474 50.5119 143.754 51.2563 151.199L55.2365 150.801C54.6476 144.912 57.5695 134.742 68.3727 123.752C79.1374 112.801 97.6368 101.153 127.803 92.4211L126.69 88.5789ZM281.798 60.2622L329.798 1.26217L326.695 -1.26217L278.695 57.7378L281.798 60.2622ZM329.855 122.812L281.855 57.8119L278.638 60.1881L326.638 125.188L329.855 122.812ZM363.778 82.6419L326.778 122.642L329.715 125.358L366.715 85.3581L363.778 82.6419ZM455.238 146.187C455.538 142.979 454.535 138.857 451.896 134.201C449.241 129.519 444.869 124.179 438.223 118.482C424.936 107.09 402.425 94.1507 365.873 82.1006L364.62 85.8994C400.868 97.8493 422.857 110.577 435.62 121.518C441.999 126.987 446.039 131.981 448.416 136.174C450.808 140.393 451.454 143.687 451.255 145.813L455.238 146.187ZM386.803 202.921C399.584 199.221 418.339 192.001 433.046 182.321C440.395 177.484 446.859 171.951 451.031 165.826C455.231 159.659 457.169 152.782 455.176 145.474L451.317 146.526C452.924 152.418 451.454 158.099 447.725 163.574C443.967 169.091 437.982 174.283 430.847 178.979C416.587 188.365 398.242 195.445 385.69 199.079L386.803 202.921ZM405.891 225.862L387.891 199.862L384.602 202.138L402.602 228.138L405.891 225.862ZM484.949 187.509C469.736 201.109 444.419 214.956 403.764 225.059L404.729 228.941C445.804 218.733 471.777 204.65 487.615 190.491L484.949 187.509ZM639.403 199.006L486.438 187.006L486.125 190.994L639.09 202.994L639.403 199.006ZM642.194 176.261C646.995 182.17 647.13 187.096 645.713 190.842C644.229 194.766 640.902 197.751 638.254 199.264L640.239 202.736C643.424 200.916 647.547 197.301 649.455 192.258C651.429 187.037 650.898 180.63 645.299 173.739L642.194 176.261ZM504.632 165.994L643.589 176.994L643.904 173.006L504.947 162.006L504.632 165.994ZM505.279 146.359C506.048 150.577 505.633 156.449 502.93 163.263L506.648 164.737C509.58 157.347 510.139 150.713 509.214 145.641L505.279 146.359ZM385.811 60.952C404.326 65.0849 432.57 74.3704 457.033 88.7492C481.589 103.183 501.804 122.429 505.267 146.287L509.226 145.713C505.489 119.971 483.87 99.8839 459.06 85.3008C434.156 70.6629 405.5 61.2485 386.682 57.048L385.811 60.952ZM430.669 -1.22973L384.669 57.7703L387.824 60.2297L433.824 1.22973L430.669 -1.22973ZM328.246 2H432.246V-2H328.246V2ZM740.423 311V238.273H736.423V311H740.423ZM753.799 309H738.423V313H753.799V309ZM751.799 280.957V311H755.799V280.957H751.799ZM785.014 278.957H753.799V282.957H785.014V278.957ZM787.014 311V280.957H783.014V311H787.014ZM800.355 309H785.014V313H800.355V309ZM798.355 238.273V311H802.355V238.273H798.355ZM785.014 240.273H800.355V236.273H785.014V240.273ZM787.014 268.28V238.273H783.014V268.28H787.014ZM753.799 270.28H785.014V266.28H753.799V270.28ZM751.799 238.273V268.28H755.799V238.273H751.799ZM738.423 240.273H753.799V236.273H738.423V240.273ZM711.843 265.734H727.397V261.734H711.843V265.734ZM708.358 259.35C709.098 260.669 709.608 262.214 709.862 264.014L713.823 263.455C713.509 261.23 712.859 259.2 711.847 257.394L708.358 259.35ZM705.47 255.878C706.638 256.824 707.597 257.973 708.352 259.339L711.853 257.405C710.856 255.599 709.566 254.049 707.988 252.77L705.47 255.878ZM701.345 253.667C702.931 254.188 704.298 254.929 705.47 255.878L707.988 252.77C706.413 251.494 704.609 250.529 702.595 249.867L701.345 253.667ZM696.182 252.879C698.075 252.879 699.788 253.148 701.338 253.664L702.603 249.87C700.602 249.203 698.456 248.879 696.182 248.879V252.879ZM687.458 255.347C689.884 253.723 692.765 252.879 696.182 252.879V248.879C692.071 248.879 688.394 249.906 685.233 252.023L687.458 255.347ZM681.682 262.576C683.091 259.325 685.026 256.954 687.448 255.353L685.243 252.016C682.077 254.108 679.68 257.136 678.012 260.986L681.682 262.576ZM679.539 274.636C679.539 269.788 680.28 265.791 681.68 262.581L678.014 260.982C676.336 264.827 675.539 269.4 675.539 274.636H679.539ZM681.68 286.905C680.282 283.701 679.539 279.636 679.539 274.636H675.539C675.539 280.006 676.334 284.653 678.014 288.504L681.68 286.905ZM687.464 294.013C685.049 292.458 683.106 290.124 681.675 286.895L678.018 288.515C679.713 292.34 682.126 295.333 685.298 297.376L687.464 294.013ZM696.076 296.393C692.749 296.393 689.901 295.583 687.464 294.013L685.298 297.376C688.448 299.405 692.064 300.393 696.076 300.393V296.393ZM701.199 295.667C699.662 296.145 697.958 296.393 696.076 296.393V300.393C698.312 300.393 700.42 300.098 702.386 299.487L701.199 295.667ZM705.307 293.604C704.135 294.493 702.775 295.184 701.206 295.665L702.379 299.489C704.362 298.881 706.15 297.985 707.725 296.791L705.307 293.604ZM708.205 290.306C707.432 291.608 706.462 292.708 705.29 293.617L707.742 296.778C709.316 295.556 710.619 294.076 711.645 292.348L708.205 290.306ZM709.875 285.782C709.559 287.51 708.999 289.002 708.217 290.286L711.633 292.367C712.697 290.621 713.416 288.657 713.81 286.502L709.875 285.782ZM727.406 284.213L711.852 284.142L711.833 288.142L727.387 288.213L727.406 284.213ZM726.153 296.794C727.869 293.488 728.95 290.038 729.382 286.453L725.411 285.974C725.038 289.064 724.107 292.054 722.603 294.951L726.153 296.794ZM719.291 305.63C722.16 303.039 724.454 300.091 726.156 296.788L722.6 294.956C721.13 297.809 719.139 300.377 716.61 302.662L719.291 305.63ZM709.076 311.767C713 310.268 716.414 308.228 719.291 305.631L716.61 302.662C714.137 304.895 711.159 306.689 707.649 308.031L709.076 311.767ZM695.827 313.994C700.69 313.994 705.114 313.266 709.07 311.77L707.655 308.028C704.225 309.326 700.292 309.994 695.827 309.994V313.994ZM677.431 309.325C682.877 312.452 689.027 313.994 695.827 313.994V309.994C689.654 309.994 684.203 308.601 679.422 305.856L677.431 309.325ZM664.587 295.782C667.709 301.651 671.989 306.187 677.427 309.323L679.426 305.858C674.684 303.124 670.915 299.161 668.118 293.903L664.587 295.782ZM659.949 274.636C659.949 282.787 661.462 289.86 664.584 295.776L668.121 293.909C665.372 288.698 663.949 282.3 663.949 274.636H659.949ZM664.661 253.45C661.487 259.369 659.949 266.459 659.949 274.636H663.949C663.949 266.952 665.394 260.548 668.186 255.34L664.661 253.45ZM677.579 239.944C672.114 243.056 667.808 247.58 664.661 253.45L668.186 255.34C671.005 250.083 674.796 246.132 679.558 243.42L677.579 239.944ZM695.827 235.278C689.116 235.278 683.015 236.823 677.573 239.947L679.564 243.416C684.35 240.669 689.754 239.278 695.827 239.278V235.278ZM708.171 237.154C704.349 235.897 700.23 235.278 695.827 235.278V239.278C699.852 239.278 703.545 239.843 706.921 240.954L708.171 237.154ZM718.431 242.687C715.437 240.251 712.009 238.408 708.167 237.153L706.924 240.955C710.327 242.067 713.315 243.681 715.907 245.79L718.431 242.687ZM725.75 251.568C723.876 248.072 721.433 245.104 718.424 242.681L715.915 245.797C718.493 247.872 720.595 250.419 722.225 253.458L725.75 251.568ZM729.383 263.5C728.86 259.069 727.658 255.078 725.745 251.558L722.23 253.468C723.868 256.482 724.939 259.972 725.41 263.969L729.383 263.5ZM599.603 311V238.273H595.603V311H599.603ZM612.979 309H597.603V313H612.979V309ZM610.979 285.219V311H614.979V285.219H610.979ZM624.203 283.219H612.979V287.219H624.203V283.219ZM639.743 310.057L625.967 284.276L622.439 286.161L636.215 311.943L639.743 310.057ZM654.953 309H637.979V313H654.953V309ZM637.768 283.705L653.198 311.959L656.709 310.041L641.278 281.787L637.768 283.705ZM639.014 280.784C638.918 280.827 638.823 280.87 638.727 280.911L640.319 284.581C640.432 284.531 640.545 284.482 640.657 284.431L639.014 280.784ZM639.33 280.639C639.225 280.688 639.12 280.737 639.014 280.784L640.657 284.431C640.782 284.375 640.907 284.317 641.031 284.259L639.33 280.639ZM647.523 273.462C645.662 276.55 642.959 278.944 639.334 280.637L641.027 284.261C645.31 282.261 648.644 279.351 650.949 275.527L647.523 273.462ZM650.361 262.03C650.361 266.567 649.385 270.352 647.52 273.467L650.952 275.522C653.254 271.676 654.361 267.152 654.361 262.03H650.361ZM647.542 250.498C649.396 253.695 650.361 257.516 650.361 262.03H654.361C654.361 256.932 653.266 252.395 651.002 248.491L647.542 250.498ZM639.468 243.011C643.041 244.787 645.707 247.276 647.534 250.484L651.01 248.504C648.765 244.563 645.488 241.536 641.248 239.429L639.468 243.011ZM626.296 240.273C631.555 240.273 635.916 241.214 639.455 243.005L641.261 239.436C637.035 237.297 632.022 236.273 626.296 236.273V240.273ZM597.603 240.273H626.296V236.273H597.603V240.273ZM612.979 274.861H623.419V270.861H612.979V274.861ZM610.979 250.844V272.861H614.979V250.844H610.979ZM623.348 248.844H612.979V252.844H623.348V248.844ZM631.522 250.335C629.242 249.306 626.488 248.844 623.348 248.844V252.844C626.127 252.844 628.274 253.257 629.877 253.981L631.522 250.335ZM636.804 254.93C635.616 252.852 633.805 251.325 631.495 250.323L629.903 253.992C631.523 254.695 632.624 255.677 633.331 256.914L636.804 254.93ZM638.523 262.03C638.523 259.35 637.984 256.944 636.793 254.911L633.341 256.933C634.092 258.214 634.523 259.88 634.523 262.03H638.523ZM636.78 269.064C637.983 267.068 638.523 264.687 638.523 262.03H634.523C634.523 264.155 634.092 265.775 633.354 266.998L636.78 269.064ZM631.501 273.501C633.791 272.551 635.596 271.076 636.791 269.045L633.343 267.017C632.644 268.206 631.561 269.146 629.969 269.806L631.501 273.501ZM623.419 274.861C626.521 274.861 629.241 274.438 631.501 273.501L629.969 269.806C628.346 270.479 626.189 270.861 623.419 270.861V274.861ZM518.856 313H535.333V309H518.856V313ZM542.072 237.62L516.966 310.347L520.747 311.653L545.853 238.925L542.072 237.62ZM563.778 236.273H543.963V240.273H563.778V236.273ZM590.74 310.348L565.669 237.621L561.887 238.925L586.958 311.652L590.74 310.348ZM572.372 313H588.849V309H572.372V313ZM565.085 295.034L570.47 311.618L574.274 310.382L568.889 293.799L565.085 295.034ZM540.728 296.416H566.987V292.416H540.728V296.416ZM537.235 311.619L542.63 295.035L538.827 293.797L533.431 310.381L537.235 311.619ZM564.992 281.796L556.057 254.274L552.252 255.51L561.188 283.031L564.992 281.796ZM544.633 284.413H563.09V280.413H544.633V284.413ZM551.684 254.273L542.731 281.795L546.535 283.032L555.488 255.511L551.684 254.273ZM554.154 252.892H553.586V256.892H554.154V252.892ZM463.567 311V238.273H459.567V311H463.567ZM510.715 309H461.567V313H510.715V309ZM508.715 298.322V311H512.715V298.322H508.715ZM476.944 300.322H510.715V296.322H476.944V300.322ZM474.944 280.957V298.322H478.944V280.957H474.944ZM508.052 278.957H476.944V282.957H508.052V278.957ZM506.052 268.28V280.957H510.052V268.28H506.052ZM476.944 270.28H508.052V266.28H476.944V270.28ZM474.944 250.95V268.28H478.944V250.95H474.944ZM510.573 248.95H476.944V252.95H510.573V248.95ZM508.573 238.273V250.95H512.573V238.273H508.573ZM461.567 240.273H510.573V236.273H461.567V240.273Z" fill="#022031" mask="url(#path-1-inside-1_3_29)"/>
</svg>
